<svg width="29.000000" height="29.000000" viewBox="0 0 29 29" fill="none" xmlns="http://www.w3.org/2000/svg" xmlns:xlink="http://www.w3.org/1999/xlink">
	<desc>
			Created with Pixso.
	</desc>
	<defs/>
	<path id="Subtract" d="M13.999 -0.732758C5.86307 -0.732758 -0.732422 5.86273 -0.732422 13.9987C-0.732422 22.1347 5.86307 28.7302 13.999 28.7302C22.135 28.7302 28.7305 22.1347 28.7305 13.9987C28.7305 5.86273 22.135 -0.732758 13.999 -0.732758ZM11.3634 7.40698L11.3634 7.40701L15.2845 7.40701C18.1339 7.40701 20.4437 9.71686 20.4437 12.5662C20.4437 15.4155 18.1339 17.7254 15.2845 17.7254L11.3634 17.7254L11.3634 20.8209L8.47424 20.8209L8.47424 7.40698L11.3634 7.40698ZM11.3634 14.8362L11.3634 10.2961L15.2845 10.2961C16.5383 10.2961 17.5546 11.3125 17.5546 12.5662C17.5546 13.8199 16.5383 14.8362 15.2845 14.8362L11.3634 14.8362Z" clip-rule="evenodd" fill="#44464A" fill-opacity="1.000000" fill-rule="evenodd"/>
</svg>
